# xmcd
# 
# Track frame offsets:
#     150
#     16170
#     30588
#     53603
#     71551
#     93391
#     108716
#     128167
#     143028
#     165027
#     195694
# 
# Disc length: 3032
# 
# Revision: 8
# Processed by: cddbd v1.5.2PL0 Copyright (c) Steve Scherf et al.
# Submitted via: fre:ac v1.0.17
# 
DISCID=870bd60b
DTITLE=徐怀钰 - 第一张个人专辑
DYEAR=1998
DGENRE=Pop
TTITLE0=飞起来 (Flying)
TTITLE1=Dub-I-Dub
TTITLE2=你还记得吗 (Do You Remember)
TTITLE3=爱像一场重感冒 (Love Is Like A Bad Cold)
TTITLE4=我是女生 (I'm A Girl)
TTITLE5=妙妙妙 (Fantastic)
TTITLE6=你约我在夏天见面 (A Summer Date)
TTITLE7=爱是 Easy Game (Love Is An Easy Game)
TTITLE8=温习 (Reviewing)
TTITLE9=Amigo
TTITLE10=Data
EXTD=
EXTT0=
EXTT1=
EXTT2=
EXTT3=
EXTT4=
EXTT5=
EXTT6=
EXTT7=
EXTT8=
EXTT9=
EXTT10=
PLAYORDER=
